# xmcd
#
# Track frame offsets: 
#        150
#        20152
#        41325
#        56332
#        73531
#        93934
#        116851
#        136526
#        154569
#        170061
#        187821
#        207509
#        226541
#
# Disc length: 3236 seconds
#
# Revision: 0
# Processed by: cddbd v1.5.2PL0 Copyright (c) Steve Scherf et al.
# Submitted via: ExactAudioCopy v0.95b3
#
DISCID=a10ca20d
DTITLE=Message - Message
DYEAR=1997
DGENRE=Contemporary Christian
TTITLE0=Ever Wondered Why
TTITLE1=Trials
TTITLE2=1000 Times
TTITLE3=I Just Wanna Know
TTITLE4=A Little Prayer
TTITLE5=Keeping On
TTITLE6=Yes He Knows
TTITLE7=Get Alongside
TTITLE8=Forgive Me
TTITLE9=Well I Must Say
TTITLE10=Do You Wanna Go To Heaven
TTITLE11=Some Good Things
TTITLE12=I Just Wanna Know (Reprise)
EXTD=
EXTT0=
EXTT1=
EXTT2=
EXTT3=
EXTT4=
EXTT5=
EXTT6=
EXTT7=
EXTT8=
EXTT9=
EXTT10=
EXTT11=
EXTT12=
PLAYORDER=
